<svg xmlns="http://www.w3.org/2000/svg" viewBox="0 0 24 24" aria-hidden="true">
  <path fill-rule="evenodd" clip-rule="evenodd" d="M10.401 2.561a1.7 1.7 0 0 1 3.198 0l.318.93a1.7 1.7 0 0 0 2.285 1.022l.885-.378a1.7 1.7 0 0 1 2.262 2.262l-.378.885a1.7 1.7 0 0 0 1.022 2.285l.93.318a1.7 1.7 0 0 1 0 3.198l-.93.318a1.7 1.7 0 0 0-1.022 2.285l.378.885a1.7 1.7 0 0 1-2.262 2.262l-.885-.378a1.7 1.7 0 0 0-2.285 1.022l-.318.93a1.7 1.7 0 0 1-3.198 0l-.318-.93a1.7 1.7 0 0 0-2.285-1.022l-.885.378a1.7 1.7 0 0 1-2.262-2.262l.378-.885a1.7 1.7 0 0 0-1.022-2.285l-.93-.318a1.7 1.7 0 0 1 0-3.198l.93-.318a1.7 1.7 0 0 0 1.022-2.285l-.378-.885a1.7 1.7 0 0 1 2.262-2.262l.885.378a1.7 1.7 0 0 0 2.285-1.022l.318-.93ZM12 9.25A2.75 2.75 0 1 0 12 14.75 2.75 2.75 0 0 0 12 9.25Z"/>
</svg>
